# xmcd
#
# Track frame offsets: 
#        150
#        13204
#        30668
#        43495
#        54422
#        75189
#        91939
#        117537
#        138667
#        149699
#        166244
#        177205
#        190500
#        205811
#        219667
#        234413
#
# Disc length: 3400 seconds
#
# Revision: 0
# Processed by: cddbd v1.5.1PL0 Copyright (c) Steve Scherf et al.
# Submitted via: ExactAudioCopy v0.95a1
#
DISCID=e00d4610
DTITLE=Various Artist - Touch My Heart: A Tribute to Johnny Paycheck
DYEAR=2004
DGENRE=Country
TTITLE0=Neko Case - If I'm Gonna Sink (I Might As Well Go to the Botto
TTITLE0=m)
TTITLE1=Al Anderson - Someone To Give My Love to
TTITLE2=Marshall Crenshaw - I'm Barely Hangin' On to Me
TTITLE3=Gail Davies and Robbie Fulks - Shakin' The Blues
TTITLE4=Dallas Wayne - I Did the Right Thing
TTITLE5=George Jones - She's All I Got
TTITLE6=Mavis Staples - Touch My Heart
TTITLE7=Hank Williams III - I'm The Only Hell My Momma Ever Raised
TTITLE8=Jim Lauderdale - I Want You To Know
TTITLE9=Dave Alvin - 11 Months and 29 Days
TTITLE10=Johnny Bush - Apartment #9
TTITLE11=Billy Yates - The Lovin' Mahine
TTITLE12=Bobby Bare, Jr - Motel Time Again
TTITLE13=Mike Ireland - A Man That's Satisfied
TTITLE14=Bobby Bare, Radney Foster, Buck Owens and Jeff Tweedy - Take Th
TTITLE14=is Job and Shove It
TTITLE15=Larry Cordle - Old Violin
EXTD=
EXTT0=
EXTT1=
EXTT2=
EXTT3=
EXTT4=
EXTT5=
EXTT6=
EXTT7=
EXTT8=
EXTT9=
EXTT10=
EXTT11=
EXTT12=
EXTT13=
EXTT14=
EXTT15=
PLAYORDER=
